# AST/ASF file generated using VICON BodyLanguage
# -----------------------------------------------
:version 1.10
:name VICON
:units
  mass 1.0
  length 0.45
  angle deg
:documentation
   .ast/.asf automatically generated from VICON data using
   VICON BodyBuilder and BodyLanguage model FoxedUp or BRILLIANT.MOD
:root
   order TX TY TZ RX RY RZ
   axis XYZ
   position 0 0 0  
   orientation 0 0 0 
:bonedata
  begin
     id 1 
     name lhipjoint
     direction 0.711131 -0.61297 0.344326 
     length 2.29162 
     axis 0 0 0  XYZ
  end
  begin
     id 2 
     name lfemur
     direction 0.34202 -0.939693 0  
     length 6.71424  
     axis 0 0 20  XYZ
    dof rx ry rz
    limits (-160.0 20.0)
           (-70.0 70.0)
           (-60.0 70.0)
  end
  begin
     id 3 
     name ltibia
     direction 0.34202 -0.939693 0   
     length 6.7087   
     axis 0 0 20   XYZ
    dof rx
    limits (-10.0 170.0)
  end
  begin
     id 4 
     name lfoot
     direction 0.0230374 -0.0632947 0.997729   
     length 1.56743   
     axis -90 7.62852e-016 20   XYZ
    dof rx rz
    limits (-45.0 90.0)
           (-70.0 20.0)
  end
  begin
     id 5 
     name ltoes
     direction 1.53585e-011 -4.21885e-011 1   
     length 0.802914   
     axis -90 7.62852e-016 20   XYZ
    dof rx
    limits (-90.0 20.0)
  end
  begin
     id 6 
     name rhipjoint
     direction -0.733192 -0.592884 0.333043   
     length 2.36925  
     axis 0 0 0  XYZ 
  end
  begin
     id 7 
     name rfemur
     direction -0.34202 -0.939693 0   
     length 6.67027   
     axis 0 0 -20   XYZ
    dof rx ry rz
    limits (-160.0 20.0)
           (-70.0 70.0)
           (-70.0 60.0)
  end
  begin
     id 8 
     name rtibia
     direction -0.34202 -0.939693 0   
     length 6.6862   
     axis 0 0 -20   XYZ
    dof rx
    limits (-10.0 170.0)
 end
 begin
     id 9 
     name rfoot
     direction -0.0949739 -0.260939 0.960672   
     length 1.67698  
     axis -90 -7.62852e-016 -20   XYZ
    dof rx rz
    limits (-45.0 90.0)
           (-20.0 70.0)
  end
  begin
     id 10 
     name rtoes
     direction -1.5353e-011 -4.21868e-011 1   
     length 0.846298   
     axis -90 -7.62852e-016 -20   XYZ
    dof rx
    limits (-90.0 20.0)
  end
  begin
     id 11 
     name lowerback
     direction -0.0206828 0.999785 -0.00109866   
     length 2.04382   
     axis 0 0 0   XYZ
    dof rx ry rz
    limits (-20.0 45.0)
           (-30.0 30.0)
           (-30.0 30.0)
  end
  begin
     id 12 
     name upperback
     direction -0.0105003 0.999727 -0.0208904   
     length 2.04538   
     axis 0 0 0   XYZ
    dof rx ry rz
    limits (-20.0 45.0)
           (-30.0 30.0)
           (-30.0 30.0)
  end
  begin
     id 13 
     name thorax
     direction -0.000416255 0.999808 -0.0196023   
     length 2.0399   
     axis 0 0 0   XYZ
    dof rx ry rz
    limits (-20.0 45.0)
           (-30.0 30.0)
           (-30.0 30.0)
  end
  begin
     id 14 
     name lowerneck
     direction 0.0627861 0.989205 0.13241   
     length 1.46207   
     axis 0 0 0   XYZ
    dof rx ry rz
    limits (-20.0 45.0)
           (-30.0 30.0)
           (-30.0 30.0)
  end
  begin
     id 15 
     name upperneck
     direction 0.00627179 0.994526 0.104303   
     length 1.41419   
     axis 0 0 0   XYZ
    dof rx ry rz
    limits (-20.0 45.0)
           (-30.0 30.0)
           (-30.0 30.0)
  end
  begin
     id 16
     name head
     direction -0.00443838 0.999688 0.0245968  
     length 1.50718  
     axis 0 0 0   XYZ
    dof rx ry rz
    limits (-20.0 45.0)
           (-30.0 30.0)
           (-30.0 30.0)
  end
  begin
     id 17 
     name lclavicle
     direction 0.758742 0.650995 -0.0227258  
     length 2.86888  
     axis 0 0 0   XYZ
    dof ry rz
    limits (-20.0 10.0)
           (0.0 20.0)
  end
  begin
     id 18 
     name lhumerus
     direction 1 -4.48962e-011 1.06664e-027   
     length 4.65776   
     axis -180 -30 -90   XYZ
    dof rx ry rz
    limits (-60.0 90.0)
           (-90.0 90.0)
           (-90.0 90.0)
  end
  begin
     id 19
     name lradius
     direction 1 -4.48968e-011 1.40404e-026   
     length 3.55539   
     axis -180 -30 -90   XYZ
    dof rx
    limits (-10.0 170.0)
  end
  begin
     id 20
     name lwrist
     direction 1 -4.48976e-011 3.32647e-026   
     length 1.77769   
     axis -2.20186e-014 90 90   XYZ
    dof ry
    limits (-180.0 0.0)
 end
  begin
     id 21 
     name lhand
     direction 1 -4.48982e-011 6.65293e-026   
     length 0.707264   
     axis -4.24514e-014 90 90   XYZ
    dof rx rz
    limits (-90.0 90.0)
           (-45.0 45.0)
  end
  begin
     id 22 
     name lfingers
     direction 1 -4.48966e-011 1.33059e-025   
     length 0.570215   
     axis -8.49028e-014 90 90   XYZ
    dof rx
    limits (0.0 90.0)
  end
  begin
     id 23
     name lthumb
     direction 0.707107 -6.3493e-011 0.707107   
     length 0.818718   
     axis -90 45 2.85299e-015   XYZ
    dof rx rz
    limits (-45.0 45.0)
           (-45.0 45.0)
  end
  begin
     id 24 
     name rclavicle
     direction -0.870343 0.482028 -0.100759   
     length 3.2251  
     axis 0 0 0   XYZ 
    dof ry rz
    limits (-10.0 20.0)
           (-20.0 0.0)
  end
  begin
     id 25 
     name rhumerus
     direction -1 -4.48974e-011 -9.45849e-028  
     length 4.71925   
     axis -180 30 90   XYZ
    dof rx ry rz
    limits (-90.0 60.0)
           (-90.0 90.0)
           (-90.0 90.0)
  end
  begin
     id 26 
     name rradius
     direction -1 -4.48965e-011 1.17607e-026   
     length 3.5699   
     axis -180 30 90   XYZ
    dof rx
    limits (-10.0 170.0)
  end
  begin
     id 27 
     name rwrist
     direction -1 -4.48968e-011 3.32647e-026   
     length 1.78495   
     axis -2.20186e-014 -90 -90   XYZ
    dof ry
    limits (-180.0 0.0)
  end
  begin
     id 28
     name rhand
     direction -1 -4.48995e-011 6.65293e-026   
     length 0.507757   
     axis -4.24514e-014 -90 -90   XYZ
    dof rx rz
    limits (-90.0 90.0)
           (-45.0 45.0)
  end
  begin
     id 29
     name rfingers
     direction -1 -4.48864e-011 1.33059e-025   
     length 0.409367   
     axis -8.49028e-014 -90 -90   XYZ
    dof rx
    limits (0.0 90.0)
  end
  begin
     id 30
     name rthumb
     direction -0.707107 -6.3494e-011 0.707107   
     length 0.587771   
     axis -90 -45 -2.85299e-015   XYZ
    dof rx rz
    limits (-45.0 45.0)
           (-45.0 45.0)
  end
:hierarchy
  begin
    root lhipjoint rhipjoint lowerback
    lhipjoint lfemur
    lfemur ltibia
    ltibia lfoot
    lfoot ltoes
    rhipjoint rfemur
    rfemur rtibia
    rtibia rfoot
    rfoot rtoes
    lowerback upperback
    upperback thorax
    thorax lowerneck lclavicle rclavicle
    lowerneck upperneck
    upperneck head
    lclavicle lhumerus
    lhumerus lradius
    lradius lwrist
    lwrist lhand lthumb
    lhand lfingers
    rclavicle rhumerus
    rhumerus rradius
    rradius rwrist
    rwrist rhand rthumb
    rhand rfingers
  end

#!OML:ASF E:\Steps\Project 1\Capture day 1\Session 2\Subject.ASF
:FULLY-SPECIFIED
:DEGREES
16
root 8.79526 16.3058 31.524 -156.488 1.20499 179.745
lowerback -27.0951 -1.76491 -4.78618
upperback -1.87281 -0.180791 -0.352601
thorax 13.0692 -0.0903413 2.35083
lowerneck -0.524928 -3.94322 -2.69327
upperneck -9.62337 -4.39345 6.55189
head -2.77841 -2.09559 2.69377
rclavicle -6.5102e-015 -3.18055e-015
rhumerus -34.6378 -20.3782 -78.8433
rradius 26.8747
rwrist 5.17744
rhand -7.64725 -52.3497
rfingers 7.12502
rthumb -161.752 98.4862
lclavicle -6.5102e-015 -3.18055e-015
lhumerus -29.0326 13.136 78.0668
lradius 13.9141
lwrist -15.9747
lhand -20.7225 -12.9944
lfingers 7.12502
lthumb 5.64223 16.9105
rfemur -21.5381 7.85484 18.3032
rtibia 9.49933
rfoot -20.2664 -7.40827
rtoes -30.671
lfemur -21.2214 -9.34893 -18.5694
ltibia 7.66638
lfoot -8.83025 4.04396
ltoes -43.8038
17
root 8.7977 16.3051 31.525 -156.473 1.2248 179.757
lowerback -27.0927 -1.77987 -4.78234
upperback -1.88938 -0.201702 -0.340754
thorax 13.0501 -0.0984068 2.35457
lowerneck -0.425754 -3.93907 -2.75075
upperneck -9.70729 -4.38148 6.59945
head -2.82389 -2.09033 2.72572
rclavicle -7.40473e-015 -1.47101e-014
rhumerus -34.7575 -20.2591 -78.7758
rradius 26.7562
rwrist 5.18629
rhand -7.49824 -52.3963
rfingers 7.12502
rthumb -161.608 98.4532
lclavicle -7.40473e-015 -1.47101e-014
lhumerus -29.2139 14.0468 77.5606
lradius 13.5478
lwrist -16.869
lhand -20.7181 -13.5145
lfingers 7.12502
lthumb 5.64649 16.3903
rfemur -21.6171 7.16513 18.4309
rtibia 9.56757
rfoot -20.3034 -6.7123
rtoes -30.7746
lfemur -21.3448 -9.29432 -18.551
ltibia 7.88841
lfoot -8.98624 4.00869
ltoes -44.0409
18
root 8.79933 16.3041 31.5228 -156.407 1.18591 179.789
lowerback -27.1677 -1.7858 -4.74825
upperback -1.90899 -0.211299 -0.333331
thorax 13.068 -0.0987494 2.34049
lowerneck -0.338534 -3.96752 -2.77794
upperneck -9.81426 -4.40536 6.67759
head -2.87319 -2.10326 2.76336
rclavicle -4.37326e-015 8.74653e-015
rhumerus -34.8746 -20.3961 -78.6215
rradius 26.5833
rwrist 5.35071
rhand -7.52641 -51.9404
rfingers 7.12502
rthumb -161.636 98.9065
lclavicle -4.37326e-015 8.74653e-015
lhumerus -29.3228 14.827 77.1175
lradius 13.1324
lwrist -17.6834
lhand -20.8899 -13.9952
lfingers 7.12502
lthumb 5.48067 15.914
rfemur -21.6216 7.57869 18.4168
rtibia 9.48107
rfoot -20.2477 -7.16424
rtoes -30.642
lfemur -21.48 -9.36087 -18.4838
ltibia 8.03582
lfoot -9.06781 4.02988
ltoes -43.8701
19
root 8.80194 16.3042 31.5219 -156.354 1.16957 179.804
lowerback -27.2039 -1.79107 -4.75132
upperback -1.93655 -0.210852 -0.328007
thorax 13.0552 -0.0957419 2.34914
lowerneck -0.254416 -3.99708 -2.79454
upperneck -9.90233 -4.43165 6.76053
head -2.91558 -2.11818 2.80023
rclavicle 2.33572e-015 -1.51076e-014
rhumerus -34.9845 -20.7724 -78.36
rradius 26.3439
rwrist 5.65124
rhand -7.55566 -51.592
rfingers 7.12502
rthumb -161.664 99.2522
lclavicle 2.33572e-015 -1.51076e-014
lhumerus -29.4571 15.5537 76.6955
lradius 12.7368
lwrist -18.5403
lhand -21.0789 -14.6555
lfingers 7.12502
lthumb 5.29813 15.2583
rfemur -21.6798 7.55778 18.4383
rtibia 9.47518
rfoot -20.2416 -7.14548
rtoes -30.4254
lfemur -21.4887 -9.54681 -18.3989
ltibia 7.91994
lfoot -9.00933 4.17618
ltoes -43.6075
20
root 8.80441 16.3042 31.5209 -156.342 1.2083 179.798
lowerback -27.232 -1.77802 -4.77786
upperback -1.93497 -0.180339 -0.345533
thorax 13.0701 -0.0827228 2.35595
lowerneck -0.240379 -3.99029 -2.77009
upperneck -9.90711 -4.41781 6.7917
head -2.92052 -2.11283 2.80677
rclavicle 3.47873e-015 1.47101e-014
rhumerus -35.0905 -20.9624 -78.2261
rradius 26.2057
rwrist 5.75033
rhand -7.6182 -52.1184
rfingers 7.12502
rthumb -161.724 98.7202
lclavicle 3.47873e-015 1.47101e-014
lhumerus -29.6013 15.9631 76.3957
lradius 12.5733
lwrist -19.0786
lhand -21.0539 -15.0156
lfingers 7.12502
lthumb 5.32226 14.8976
rfemur -21.7023 7.58854 18.4223
rtibia 9.48752
rfoot -20.2946 -7.12531
rtoes -30.5249
lfemur -21.4379 -9.57144 -18.3881
ltibia 7.78913
lfoot -8.93615 4.23381
ltoes -43.7254
21
root 8.80509 16.3039 31.5183 -156.368 1.25709 179.775
lowerback -27.2406 -1.76051 -4.8027
upperback -1.91883 -0.146992 -0.371196
thorax 13.0913 -0.0696329 2.35318
lowerneck -0.243969 -3.98458 -2.7623
upperneck -9.91261 -4.40467 6.82645
head -2.922 -2.10677 2.817
rclavicle 5.01931e-015 -3.85642e-014
rhumerus -35.2234 -20.8905 -78.1922
rradius 26.1688
rwrist 5.60798
rhand -7.9947 -52.5703
rfingers 7.12502
rthumb -162.086 98.2348
lclavicle 5.01931e-015 -3.85642e-014
lhumerus -29.7579 16.0427 76.2512
lradius 12.5314
lwrist -19.2793
lhand -20.996 -15.2527
lfingers 7.12502
lthumb 5.37816 14.6591
rfemur -21.6777 7.34208 18.4338
rtibia 9.49419
rfoot -20.3234 -6.91069
rtoes -30.774
lfemur -21.3697 -9.45941 -18.4571
ltibia 7.73737
lfoot -8.93636 4.16651
ltoes -43.3861
22
root 8.80736 16.3017 31.519 -156.299 1.29111 179.717
lowerback -27.3037 -1.76543 -4.88468
upperback -1.92753 -0.116521 -0.394795
thorax 13.1134 -0.0581222 2.38539
lowerneck -0.222157 -4.01195 -2.74708
upperneck -9.99389 -4.42569 6.88625
head -2.95184 -2.11748 2.83799
rclavicle -5.2181e-015 1.55052e-014
rhumerus -35.3554 -20.9406 -78.0881
rradius 26.1226
rwrist 5.52085
rhand -8.72413 -52.6129
rfingers 7.12502
rthumb -162.788 98.1293
lclavicle -5.2181e-015 1.55052e-014
lhumerus -29.896 15.8752 76.2198
lradius 12.4885
lwrist -19.1821
lhand -21.0135 -15.8687
lfingers 7.12502
lthumb 5.36133 14.0435
rfemur -21.7795 7.07565 18.4239
rtibia 9.54864
rfoot -20.3035 -6.67486
rtoes -30.9283
lfemur -21.5419 -9.2762 -18.5667
ltibia 7.99623
lfoot -9.07016 4.01126
ltoes -43.582
23
root 8.80834 16.3024 31.5182 -156.371 1.29212 179.71
lowerback -27.2358 -1.74891 -4.91365
upperback -1.89938 -0.0965091 -0.393583
thorax 13.1084 -0.0541038 2.41024
lowerneck -0.215009 -4.02378 -2.72801
upperneck -10.0578 -4.43005 6.91479
head -2.9746 -2.11932 2.84644
rclavicle -8.44835e-016 -6.36111e-015
rhumerus -35.4327 -21.2143 -77.873
rradius 25.9521
rwrist 5.77792
rhand -9.24654 -52.6519
rfingers 7.12502
rthumb -163.291 98.0472
lclavicle -8.44835e-016 -6.36111e-015
lhumerus -30.0145 15.8654 76.1621
lradius 12.4356
lwrist -19.0696
lhand -20.9665 -16.3678
lfingers 7.12502
lthumb 5.40669 13.5432
rfemur -21.6995 7.13386 18.3958
rtibia 9.55137
rfoot -20.2668 -6.73432
rtoes -31.0785
lfemur -21.4954 -9.41926 -18.5555
ltibia 8.07792
lfoot -9.06076 4.18924
ltoes -44.3927
24
root 8.81324 16.2997 31.5217 -156.365 1.28855 179.773
lowerback -27.1856 -1.74434 -4.90164
upperback -1.91009 -0.102944 -0.363791
thorax 13.0692 -0.0567723 2.43494
lowerneck -0.187677 -3.9858 -2.74489
upperneck -10.0886 -4.3782 6.90337
head -2.99298 -2.09288 2.84672
rclavicle -2.38542e-015 1.15295e-014
rhumerus -35.4872 -21.4564 -77.6987
rradius 25.7798
rwrist 6.19064
rhand -9.26816 -52.5907
rfingers 7.12502
rthumb -163.312 98.1066
lclavicle -2.38542e-015 1.15295e-014
lhumerus -30.1375 16.0453 76.0509
lradius 12.41
lwrist -19.1714
lhand -21.0284 -16.3273
lfingers 7.12502
lthumb 5.34697 13.5853
rfemur -21.7327 7.27896 18.4787
rtibia 9.58088
rfoot -20.2661 -6.85697
rtoes -31.2124
lfemur -21.5493 -9.25833 -18.4649
ltibia 8.11219
lfoot -9.0037 4.05629
ltoes -44.4308
25
root 8.8123 16.3025 31.5218 -156.45 1.25816 179.77
lowerback -27.0918 -1.738 -4.8763
upperback -1.88462 -0.113421 -0.372241
thorax 13.0491 -0.0626568 2.40575
lowerneck -0.122951 -3.94766 -2.75541
upperneck -10.1565 -4.32189 6.90621
head -3.03116 -2.06508 2.85296
rclavicle -1.63997e-015 -1.15295e-014
rhumerus -35.5385 -21.7184 -77.5368
rradius 25.6508
rwrist 6.50296
rhand -9.05019 -51.5793
rfingers 7.12502
rthumb -163.102 99.1359
lclavicle -1.63997e-015 -1.15295e-014
lhumerus -30.2942 16.3896 75.816
lradius 12.4034
lwrist -19.4131
lhand -20.9386 -16.6733
lfingers 7.12502
lthumb 5.43361 13.2371
rfemur -21.6332 7.29771 18.4626
rtibia 9.55925
rfoot -20.3238 -6.91189
rtoes -31.1809
lfemur -21.4572 -9.31027 -18.459
ltibia 8.06531
lfoot -8.97588 4.04819
ltoes -43.8767
26
root 8.81523 16.3046 31.5276 -156.356 1.27007 179.738
lowerback -27.0848 -1.75338 -4.95969
upperback -1.92267 -0.102704 -0.375134
thorax 13.0006 -0.0579246 2.45509
lowerneck -0.11645 -3.93465 -2.74511
upperneck -10.2159 -4.29365 6.92973
head -3.05409 -2.05034 2.86065
rclavicle 1.68967e-015 -1.11319e-014
rhumerus -35.5799 -22.0529 -77.3391
rradius 25.4844
rwrist 6.76408
rhand -8.94804 -49.1625
rfingers 7.12502
rthumb -163.004 101.561
lclavicle 1.68967e-015 -1.11319e-014
lhumerus -30.4296 16.4534 75.725
lradius 12.4355
lwrist -19.4713
lhand -20.9865 -17.0599
lfingers 7.12502
lthumb 5.38734 12.8516
rfemur -21.7922 7.36087 18.4196
rtibia 9.62011
rfoot -20.3644 -6.96177
rtoes -31.0139
lfemur -21.6401 -9.06479 -18.5032
ltibia 8.19861
lfoot -9.06946 3.83078
ltoes -43.4824
27
root 8.81652 16.3042 31.5281 -156.367 1.28682 179.7
lowerback -27.0469 -1.75523 -5.01221
upperback -1.92569 -0.0903195 -0.386044
thorax 12.976 -0.0543717 2.47733
lowerneck -0.161969 -3.90541 -2.75785
upperneck -10.184 -4.25437 6.93799
head -3.03651 -2.02951 2.86269
rclavicle 2.13694e-015 -2.26615e-014
rhumerus -35.6286 -22.2766 -77.1888
rradius 25.3323
rwrist 6.99154
rhand -8.9188 -49.9839
rfingers 7.12502
rthumb -162.975 100.742
lclavicle 2.13694e-015 -2.26615e-014
lhumerus -30.5336 16.4496 75.6749
lradius 12.411
lwrist -19.5238
lhand -21.0212 -16.5377
lfingers 7.12502
lthumb 5.35388 13.3747
rfemur -21.7866 7.39704 18.3688
rtibia 9.62215
rfoot -20.338 -6.97983
rtoes -30.7421
lfemur -21.6556 -9.1672 -18.522
ltibia 8.23393
lfoot -9.1457 3.93556
ltoes -43.345
